Coordinates
version=1
nRows=6
nColumns=107
inDegrees=yes

Units are S.I. units (second, meters, Newtons, ...)
If the header above contains a line with 'inDegrees', this indicates whether rotational values are in degrees (yes) or radians (no).

endheader
time	sternoclavicular_r2	sternoclavicular_r3	unrotscap_r3	unrotscap_r2	acromioclavicular_r2	acromioclavicular_r3	acromioclavicular_r1	unrothum_r1	unrothum_r3	unrothum_r2	elv_angle	shoulder_elv	shoulder1_r2	shoulder_rot	elbow_flexion	pro_sup	deviation	flexion	proximal_distal_r1	proximal_distal_r3	cmc_flexion	cmc_abduction	mp_flexion	ip_flexion	mcp2_flexion	mcp2_abduction	pm2_flexion	md2_flexion	mcp3_flexion	mcp3_abduction	pm3_flexion	md3_flexion	mcp4_flexion	mcp4_abduction	pm4_flexion	md4_flexion	mcp5_flexion	mcp5_abduction	pm5_flexion	md5_flexion	bicpt_tx	bicpt_ty	bicpt_tz	bicpt2_tx	bicpt2_ty	bicpt2_tz	ptpt_tx	ptpt_ty	ptpt_tz	FCUpt_tx	FCUpt_ty	FCUpt_tz	EDCpt_tx	EDCpt_ty	EDCpt_tz	APLpt_tx	APLpt_ty	APLpt_tz	FPLpt_tx	FPLpt_ty	FPLpt_tz	FPLpt2_tx	FPLpt2_ty	FPLpt2_tz	PEC1pt2_tx	PEC1pt2_ty	PEC1pt2_tz	PEC1pt3_tx	PEC1pt3_ty	PEC1pt3_tz	PEC2pt2_tx	PEC2pt2_ty	PEC2pt2_tz	PEC2pt3_tx	PEC2pt3_ty	PEC2pt3_tz	PEC3pt2_tx	PEC3pt2_ty	PEC3pt2_tz	PEC3pt3_tx	PEC3pt3_ty	PEC3pt3_tz	DELT2pt2a_tx	DELT2pt2a_ty	DELT2pt2a_tz	DELT2pt2_tx	DELT2pt2_ty	DELT2pt2_tz	LAT1pt2_tx	LAT1pt2_ty	LAT1pt2_tz	LAT1pt3_tx	LAT1pt3_ty	LAT1pt3_tz	LAT2pt2_tx	LAT2pt2_ty	LAT2pt2_tz	LAT2pt3_tx	LAT2pt3_ty	LAT2pt3_tz	LAT3pt2_tx	LAT3pt2_ty	LAT3pt2_tz	LAT3pt3_tx	LAT3pt3_ty	LAT3pt3_tz
      1.03333333	     -0.31755733	      0.13450230	     -0.13450230	      0.31755733	     -0.06429890	      0.51964108	      0.23357509	     -0.23357509	     -0.51964108	      0.06429890	     99.52099838	     75.18451946	     -1.73696910	    -25.09633073	     28.85012201	     11.98598870	      0.06015014	     -0.57469262	      0.07867092	     -0.28734631	     -2.29405975	      1.57548791	    -34.06879140	    -33.29883582	      4.77198088	     13.18038478	     14.69959077	     -9.55922106	     46.76342977	     11.33368243	     84.16463910	     64.76968845	     37.44309471	     -4.97799096	     94.33562081	     38.74723166	     -2.69303266	    -14.08164968	     -6.29754134	      5.07443947	      0.00085427	     -0.03090666	     -0.00483262	      0.01562438	     -0.01803728	     -0.00991040	      0.00666437	     -0.06547266	     -0.00101554	      0.00508093	     -0.18396640	      0.00010795	     -0.00143832	      0.00036177	      0.00013487	      0.00031141	      0.00012456	      0.00062281	      0.00039860	      0.00119580	      0.00067264	     -0.00010846	      0.00006027	      0.00007233	      0.00246438	      0.00864623	      0.00601477	     -0.00806146	      0.01946445	     -0.01846199	      0.00246438	      0.00864623	      0.00601477	      0.00054300	      0.01804430	     -0.00948161	      0.00391057	      0.00480806	      0.01587557	      0.00000000	      0.00755838	      0.00000000	     -0.00705900	     -0.03262176	     -0.00623096	      0.01654341	     -0.00059338	     -0.00526445	     -0.00087715	      0.01470276	     -0.00601477	      0.00242261	      0.02121876	     -0.01754307	     -0.00588946	      0.01273961	     -0.00538823	     -0.01228015	      0.02689937	     -0.03011560	     -0.02305661	      0.01424330	     -0.00722607	     -0.01528753	      0.03107629	     -0.03763406
      1.06666667	     -0.31597458	      0.13383192	     -0.13383192	      0.31597458	     -0.06397843	      0.51705113	      0.23241092	     -0.23241092	     -0.51705113	      0.06397843	     99.99843844	     74.80979061	     -1.74530200	    -26.61497765	     28.45247538	     10.02516637	      0.06591033	     -0.55950634	      0.08589393	     -0.27975317	     -0.32021685	      1.41707500	    -33.64642360	    -33.20642875	      7.65140607	     12.92931131	     16.39282806	     -8.84665147	     43.63612250	     10.64231390	     82.98729167	     64.56720224	     34.89627353	     -5.16395683	     92.92676159	     38.36889314	     -0.93228634	    -14.14473781	     -5.76533346	      5.14393298	      0.00084112	     -0.03086109	     -0.00482528	      0.01549065	     -0.01792925	     -0.01004001	      0.00680925	     -0.06537898	     -0.00085758	      0.00490106	     -0.18399105	      0.00016469	     -0.00120302	      0.00029956	      0.00011813	      0.00031029	      0.00012412	      0.00062058	      0.00039717	      0.00119152	      0.00067023	     -0.00000996	      0.00000804	      0.00000964	      0.00245210	      0.00860313	      0.00598479	     -0.00802128	      0.01936744	     -0.01836998	      0.00245210	      0.00860313	      0.00598479	      0.00054029	      0.01795436	     -0.00943435	      0.00389623	      0.00478409	      0.01583984	      0.00000000	      0.00748272	      0.00000000	     -0.00702381	     -0.03245916	     -0.00616813	      0.01730083	     -0.00064327	     -0.00592257	     -0.00087278	      0.01462948	     -0.00598479	      0.00241054	      0.02111300	     -0.01745563	     -0.00586011	      0.01267611	     -0.00536137	     -0.01221894	      0.02676530	     -0.02996550	     -0.02294169	      0.01417231	     -0.00719006	     -0.01521134	      0.03092141	     -0.03744649
      1.10000000	     -0.31442375	      0.13317506	     -0.13317506	      0.31442375	     -0.06366441	      0.51451340	      0.23127023	     -0.23127023	     -0.51451340	      0.06366441	    100.51558437	     74.44261873	     -1.75432790	    -28.15582887	     27.98544942	      7.79405260	      0.07745802	     -0.53206926	      0.10021060	     -0.26603463	      2.27430463	      1.27589803	    -33.24496915	    -33.04841762	     10.03414329	     12.60510369	     18.20744227	     -7.99262702	     39.10218940	      9.12627958	     80.82427830	     63.94828720	     30.90927284	     -5.80858362	     90.00860527	     37.58125587	      1.18737083	    -14.19208320	     -5.28256086	      5.12879372	      0.00082567	     -0.03080756	     -0.00481665	      0.01532779	     -0.01780238	     -0.01018092	      0.00697411	     -0.06527238	     -0.00067785	      0.00469785	     -0.18401777	      0.00023276	     -0.00093528	      0.00023021	      0.00009655	      0.00030732	      0.00012293	      0.00061463	      0.00039336	      0.00118009	      0.00066380	      0.00003887	     -0.00005399	     -0.00006479	      0.00244007	      0.00856091	      0.00595541	     -0.00798191	      0.01927238	     -0.01827981	      0.00244007	      0.00856091	      0.00595541	      0.00053764	      0.01786624	     -0.00938805	      0.00388212	      0.00476061	      0.01580449	      0.00000000	      0.00740898	      0.00000000	     -0.00698934	     -0.03229985	     -0.00610688	      0.01803782	     -0.00069465	     -0.00662185	     -0.00086850	      0.01455768	     -0.00595541	      0.00239871	      0.02100938	     -0.01736996	     -0.00583134	      0.01261390	     -0.00533506	     -0.01215897	      0.02663394	     -0.02981843	     -0.02282909	      0.01410275	     -0.00715477	     -0.01513668	      0.03076964	     -0.03726270
      1.13333333	     -0.31288437	      0.13252305	     -0.13252305	      0.31288437	     -0.06335272	      0.51199440	      0.23013796	     -0.23013796	     -0.51199440	      0.06335272	    101.09293395	     74.07815587	     -1.76440455	    -29.72418661	     27.43769911	      5.26737238	      0.09493823	     -0.49455085	      0.12146713	     -0.24727542	      5.76408213	      0.73647864	    -32.52547749	    -32.70506082	     11.64532460	     12.14840955	     19.99675338	     -7.12188789	     33.46573393	      6.60048023	     77.47430985	     62.84606509	     26.13978963	     -6.84381740	     85.74055496	     36.39351637	      3.65488431	    -14.24297056	     -4.85356416	      5.10850363	      0.00080755	     -0.03074478	     -0.00480654	      0.01512960	     -0.01765359	     -0.01033208	      0.00716080	     -0.06515166	     -0.00047432	      0.00446956	     -0.18404631	      0.00031438	     -0.00063208	      0.00015352	      0.00006886	      0.00030121	      0.00012048	      0.00060241	      0.00038554	      0.00115663	      0.00065060	      0.00003842	     -0.00012566	     -0.00015079	      0.00242812	      0.00851900	      0.00592626	     -0.00794283	      0.01917803	     -0.01819032	      0.00242812	      0.00851900	      0.00592626	      0.00053501	      0.01777877	     -0.00934209	      0.00386807	      0.00473730	      0.01576909	      0.00000000	      0.00733615	      0.00000000	     -0.00695512	     -0.03214172	     -0.00604639	      0.01875539	     -0.00074769	     -0.00736484	     -0.00086425	      0.01448641	     -0.00592626	      0.00238696	      0.02090652	     -0.01728492	     -0.00580279	      0.01255214	     -0.00530894	     -0.01209944	      0.02650354	     -0.02967244	     -0.02271732	      0.01403371	     -0.00711974	     -0.01506257	      0.03061900	     -0.03708026
      1.16666667	     -0.31808769	      0.13472693	     -0.13472693	      0.31808769	     -0.06440629	      0.52050896	      0.23396519	     -0.23396519	     -0.52050896	      0.06440629	     99.38848535	     75.31008845	     -1.73465631	    -23.84919144	     28.33167215	      2.32017540	      0.26246933	     -0.07427086	      0.29982148	     -0.03713543	     10.43228629	     -5.06541046	    -31.70864989	    -23.57288932	      3.50802042	     12.46218557	     25.28603737	      3.36485905	     22.87345513	      5.90445095	     72.88983960	     50.40882409	     20.27474827	     -4.89801536	     72.34685613	     35.36614465	      7.11528128	    -14.05543457	     -5.81226154	      5.10302657	      0.00083712	     -0.03084724	     -0.00482305	      0.01488000	     -0.01789644	     -0.01049710	      0.00737857	     -0.06501085	     -0.00023690	      0.00420578	     -0.18407733	      0.00041566	     -0.00027842	      0.00006657	      0.00003219	      0.00007137	      0.00002855	      0.00014275	      0.00009136	      0.00027407	      0.00015417	      0.00003213	     -0.00020035	     -0.00024042	      0.00246850	      0.00866067	      0.00602481	     -0.00807492	      0.01949696	     -0.01849283	      0.00246850	      0.00866067	      0.00602481	      0.00054391	      0.01807444	     -0.00949745	      0.00391537	      0.00481609	      0.01588746	      0.00000000	      0.00758382	      0.00000000	     -0.00707079	     -0.03267624	     -0.00625209	      0.01589840	     -0.00055300	     -0.00474792	     -0.00087862	      0.01472732	     -0.00602481	      0.00242666	      0.02125420	     -0.01757237	     -0.00589930	      0.01276089	     -0.00539723	     -0.01230066	      0.02694430	     -0.03016590	     -0.02309511	      0.01426709	     -0.00723814	     -0.01531306	      0.03112820	     -0.03769692
      1.20000000	     -0.31947890	      0.13531618	     -0.13531618	      0.31947890	     -0.06468798	      0.52278548	      0.23498848	     -0.23498848	     -0.52278548	      0.06468798	     99.14679980	     75.63946886	     -1.73043810	    -21.89311952	     27.91371197	     -3.05071914	      0.31655574	      0.04977176	      0.34759022	      0.02488588	     14.42775650	     -7.24833354	    -30.48922038	    -20.15419310	      2.60232007	     11.84596751	     27.27620125	      5.70381798	     16.13204461	      2.81177631	     62.51786736	     41.33397124	     15.65937392	     -5.44944411	     59.94626913	     31.89718394	     10.39185754	    -14.00852478	     -6.50275325	      5.10699475	      0.00082330	     -0.03079934	     -0.00481533	      0.01437396	     -0.01778290	     -0.01076646	      0.00777541	     -0.06475424	      0.00019575	      0.00373196	     -0.18412749	      0.00061706	      0.00036609	     -0.00008500	     -0.00004676	     -0.00005300	     -0.00002120	     -0.00010600	     -0.00006784	     -0.00020351	     -0.00011448	      0.00002501	     -0.00024505	     -0.00029406	      0.00247930	      0.00869855	      0.00605116	     -0.00811024	      0.01958223	     -0.01857371	      0.00247930	      0.00869855	      0.00605116	      0.00054629	      0.01815349	     -0.00953899	      0.00392792	      0.00483715	      0.01591849	      0.00000000	      0.00765076	      0.00000000	     -0.00710171	     -0.03281915	     -0.00630767	      0.01484473	     -0.00049078	     -0.00398325	     -0.00088246	      0.01479173	     -0.00605116	      0.00243727	      0.02134716	     -0.01764922	     -0.00592510	      0.01281670	     -0.00542083	     -0.01235446	      0.02706214	     -0.03029784	     -0.02319612	      0.01432949	     -0.00726980	     -0.01538004	      0.03126434	     -0.03786179
